<svg id="visual" viewBox="0 0 900 450" width="900" height="450" xmlns="http://www.w3.org/2000/svg" xmlns:xlink="http://www.w3.org/1999/xlink" version="1.1"><rect x="0" y="0" width="900" height="450" fill="#0f1928"></rect><defs><linearGradient id="grad1_0" x1="50%" y1="0%" x2="100%" y2="100%"><stop offset="10%" stop-color="#0f1928" stop-opacity="1"></stop><stop offset="90%" stop-color="#0f1928" stop-opacity="1"></stop></linearGradient></defs><defs><linearGradient id="grad2_0" x1="0%" y1="0%" x2="50%" y2="100%"><stop offset="10%" stop-color="#0f1928" stop-opacity="1"></stop><stop offset="90%" stop-color="#0f1928" stop-opacity="1"></stop></linearGradient></defs><g transform="translate(900, 0)"><path d="M0 225C-39.6 219.3 -79.2 213.5 -112.5 194.9C-145.8 176.2 -172.8 144.6 -190.5 110C-208.2 75.4 -216.6 37.7 -225 0L0 0Z" fill="#1976d2"></path></g><g transform="translate(0, 450)"><path d="M0 -225C36.1 -213.8 72.2 -202.7 107 -185.3C141.8 -168 175.4 -144.4 194.9 -112.5C214.3 -80.6 219.7 -40.3 225 0L0 0Z" fill="#1976d2"></path></g></svg>