<svg id="visual" viewBox="0 0 900 600" width="900" height="600" xmlns="http://www.w3.org/2000/svg" xmlns:xlink="http://www.w3.org/1999/xlink" version="1.1"><rect x="0" y="0" width="900" height="600" fill="#0f1928"></rect><defs><linearGradient id="grad1_0" x1="33.3%" y1="0%" x2="100%" y2="100%"><stop offset="20%" stop-color="#0f1928" stop-opacity="1"></stop><stop offset="80%" stop-color="#0f1928" stop-opacity="1"></stop></linearGradient></defs><defs><linearGradient id="grad2_0" x1="0%" y1="0%" x2="66.7%" y2="100%"><stop offset="20%" stop-color="#0f1928" stop-opacity="1"></stop><stop offset="80%" stop-color="#0f1928" stop-opacity="1"></stop></linearGradient></defs><g transform="translate(900, 0)"><path d="M0 459.7C-80.7 447.9 -161.5 436 -229.9 398.1C-298.3 360.2 -354.3 296.2 -390.6 225.5C-426.8 154.8 -443.3 77.4 -459.7 0L0 0Z" fill="#1976d2"></path></g><g transform="translate(0, 600)"><path d="M0 -459.7C73.7 -436.8 147.3 -413.9 218.5 -378.5C289.7 -343 358.3 -295 398.1 -229.9C437.9 -164.7 448.8 -82.3 459.7 0L0 0Z" fill="#1976d2"></path></g></svg>