<?xml version="1.0" standalone="no"?><svg xmlns="http://www.w3.org/2000/svg" viewBox="0 0 1440 320"><path fill="#1976d2" fill-opacity="1" d="M0,64L30,69.3C60,75,120,85,180,80C240,75,300,53,360,80C420,107,480,181,540,208C600,235,660,213,720,213.3C780,213,840,235,900,240C960,245,1020,235,1080,202.7C1140,171,1200,117,1260,117.3C1320,117,1380,171,1410,197.3L1440,224L1440,320L1410,320C1380,320,1320,320,1260,320C1200,320,1140,320,1080,320C1020,320,960,320,900,320C840,320,780,320,720,320C660,320,600,320,540,320C480,320,420,320,360,320C300,320,240,320,180,320C120,320,60,320,30,320L0,320Z"></path></svg>