<svg id="visual" viewBox="0 0 900 600" width="900" height="600" xmlns="http://www.w3.org/2000/svg" xmlns:xlink="http://www.w3.org/1999/xlink" version="1.1"><path d="M0 420L21.5 432.8C43 445.7 86 471.3 128.8 471C171.7 470.7 214.3 444.3 257.2 445.2C300 446 343 474 385.8 468.5C428.7 463 471.3 424 514.2 406.7C557 389.3 600 393.7 642.8 412.3C685.7 431 728.3 464 771.2 471.7C814 479.3 857 461.7 878.5 452.8L900 444L900 601L878.5 601C857 601 814 601 771.2 601C728.3 601 685.7 601 642.8 601C600 601 557 601 514.2 601C471.3 601 428.7 601 385.8 601C343 601 300 601 257.2 601C214.3 601 171.7 601 128.8 601C86 601 43 601 21.5 601L0 601Z" fill="#0066FF" stroke-linecap="round" stroke-linejoin="miter"></path></svg>